<?xml version="1.0" encoding="UTF-8"?>
<svg version="1.1" xmlns="http://www.w3.org/2000/svg" width="880" height="947">
<path d="M0 0 C290.4 0 580.8 0 880 0 C880 312.51 880 625.02 880 947 C589.6 947 299.2 947 0 947 C0 634.49 0 321.98 0 0 Z " fill="#0474FE" transform="translate(0,0)"/>
<path d="M0 0 C290.4 0 580.8 0 880 0 C880 312.51 880 625.02 880 947 C589.6 947 299.2 947 0 947 C0 634.49 0 321.98 0 0 Z M459 45 C457.824375 45.433125 456.64875 45.86625 455.4375 46.3125 C445.635872 51.12420829 438.91535186 60.08630894 434.5625 69.9375 C431.84669478 77.93467963 432.68943629 86.67516725 433 95 C427.04298222 92.63815127 421.69665293 89.56853303 416.1875 86.3125 C404.85560963 79.72228721 393.22706123 74.25578481 380.93237305 69.72143555 C379.11748898 69.04386354 377.31779776 68.32598631 375.51953125 67.60546875 C322.21500524 47.21606628 258.81844161 49.11775774 206 70 C203.99673574 70.95221346 202.0313224 71.95869191 200.06494141 72.98461914 C197.79602991 74.10029695 195.49477324 75.01808748 193.13671875 75.9296875 C178.48616905 81.67576905 164.75834005 89.84683164 152 99 C151.36288086 99.44923828 150.72576172 99.89847656 150.06933594 100.36132812 C139.86909772 107.58335794 130.6815336 115.58794941 121.73779297 124.30908203 C120.22512236 125.78095006 118.69416942 127.23398296 117.16015625 128.68359375 C110.83890635 134.7651754 105.54689762 141.45093409 100.24023438 148.40576172 C98.6001426 150.51398993 96.85651053 152.52906642 95.125 154.5625 C91.06599898 159.61519837 87.67422105 165.07033106 84.25 170.5625 C83.41686279 171.89293335 83.41686279 171.89293335 82.56689453 173.25024414 C79.6356146 178.02499315 77.08626357 182.77602255 74.89892578 187.93334961 C73.54459926 191.04697643 71.9074917 194.00395689 70.3125 197 C64.74088923 207.87904462 60.81294288 219.41010692 57 231 C56.73026367 231.81807129 56.46052734 232.63614258 56.18261719 233.47900391 C38.3716711 289.23762875 46.96206787 351.99915653 70.9375 404.125 C71.43701172 405.22714844 71.93652344 406.32929688 72.45117188 407.46484375 C75.24358172 413.53968632 78.23271356 419.31626785 81.80297852 424.97216797 C83 427 83 427 84 430 C83.39414063 430.02578125 82.78828125 430.0515625 82.1640625 430.078125 C67.5790422 431.06541868 58.13949247 438.14489125 48.62890625 448.7890625 C46.90065681 451.13483992 45.96638982 453.26045742 45 456 C44.73058594 456.69222656 44.46117187 457.38445312 44.18359375 458.09765625 C43.93738281 458.74605469 43.69117188 459.39445312 43.4375 460.0625 C43.18871094 460.71347656 42.93992188 461.36445313 42.68359375 462.03515625 C41.41867572 465.67089208 40.87417169 468.86862838 40.86577892 472.72500706 C40.86132108 473.67715456 40.85686324 474.62930205 40.85227031 475.61030251 C40.85245467 476.65337671 40.85263903 477.69645091 40.85282898 478.77113342 C40.84915229 479.88159969 40.8454756 480.99206596 40.8416875 482.13618273 C40.83064229 485.87082242 40.82680537 489.6054343 40.82299805 493.34008789 C40.816734 496.01245286 40.81010003 498.68481485 40.80308533 501.35717773 C40.78333362 509.38677518 40.77325587 517.41637386 40.76435754 525.44598952 C40.75997209 529.22961821 40.75460591 533.0132455 40.74936867 536.79687309 C40.73235689 549.37888962 40.71786381 561.96090529 40.71061993 574.54293156 C40.70871011 577.8071855 40.70678976 581.07143944 40.70483398 584.33569336 C40.70435024 585.14698377 40.7038665 585.95827418 40.7033681 586.79414915 C40.69507191 599.92972232 40.66974173 613.0652043 40.63725331 626.20073766 C40.60415195 639.69439732 40.58616835 653.18801068 40.58297569 666.68171114 C40.58081332 674.25477945 40.57210497 681.82771482 40.54651451 689.40074348 C40.52476533 695.85183678 40.51677769 702.30276484 40.52648129 708.75389064 C40.53101404 712.04243647 40.52700032 715.33057194 40.50971985 718.61908531 C40.49199396 722.19300253 40.49911174 725.76606274 40.51225281 729.33998108 C40.50128356 730.36744023 40.49031432 731.39489938 40.47901267 732.45349365 C40.57808203 743.65711563 44.78110068 752.84439823 51 762 C51.64195313 762.95712891 51.64195313 762.95712891 52.296875 763.93359375 C58.25157076 771.79729492 67.05705795 775.95668981 76.57017517 777.59767532 C83.67364304 778.430925 90.82466792 778.20044306 97.96484375 778.12841797 C99.7613977 778.11805406 101.55795809 778.10876052 103.35452271 778.10044861 C107.20401358 778.08154056 111.05342413 778.05742081 114.90286255 778.02987289 C120.9976556 777.98863208 127.09233962 777.97355489 133.18725586 777.96463013 C134.73466194 777.96220694 134.73466194 777.96220694 136.31332874 777.9597348 C138.42162567 777.95649804 140.5299227 777.95332829 142.63821983 777.95022416 C156.81286918 777.92845205 170.98688624 777.89019634 185.16113281 777.77734375 C194.74439553 777.70124004 204.32677028 777.66779928 213.91033649 777.68324578 C218.97345412 777.6897086 224.03442064 777.6746159 229.09713745 777.60717392 C233.85879285 777.54406284 238.61726769 777.53737932 243.37917709 777.57289314 C245.11944267 777.57600126 246.85988994 777.55880397 248.59970474 777.51907539 C262.38111327 777.22218148 262.38111327 777.22218148 267.42501831 781.62170792 C270.28340461 784.5247197 272.63353438 787.68952867 275 791 C276.19148889 792.38962177 277.39558766 793.76881427 278.625 795.125 C279.43710937 796.06085938 279.43710937 796.06085938 280.265625 797.015625 C284.52906618 801.89361626 288.88944215 806.68861052 293.2578125 811.47265625 C297.04951354 815.6408851 300.7233047 819.85450202 304.25 824.25 C308.34586627 829.3197086 312.72465568 834.05517818 317.19116211 838.79443359 C321.32379626 843.20411246 325.14877475 847.79994784 328.9296875 852.515625 C334.25069519 859.0988316 334.25069519 859.0988316 341 864 C345.72328837 864.39550885 350.31596752 864.5987671 354.8125 863 C355.534375 862.34 356.25625 861.68 357 861 C357.49682281 860.55744873 357.99364563 860.11489746 358.50552368 859.65893555 C364.85169747 852.85450998 363.75757843 844.50021525 363.5859375 835.8125 C363.5747323 834.14243094 363.56619837 832.47234201 363.56021118 830.80224609 C363.53741644 826.42877752 363.47857652 822.05652447 363.4119873 817.68353271 C363.35036093 813.21236612 363.32315297 808.74100109 363.29296875 804.26953125 C363.22882188 795.51246603 363.12655892 786.75638466 363 778 C363.66923115 778.00276538 364.3384623 778.00553076 365.02797318 778.00837994 C381.35537603 778.07480004 397.68273576 778.12435824 414.01024246 778.15543652 C421.90629191 778.17086743 429.80225085 778.1918842 437.69824219 778.22631836 C444.58502478 778.25633692 451.47174178 778.2756024 458.35858798 778.28226548 C462.00093382 778.28615678 465.64309212 778.29522181 469.2853775 778.31719017 C473.36383682 778.34158693 477.44197564 778.34196206 481.52050781 778.34057617 C482.71166199 778.351362 483.90281616 778.36214783 485.13006592 778.3732605 C499.08199899 778.3222141 511.99802369 775.01267478 522.3125 765.1875 C523.57102611 763.81807917 524.80132908 762.42210739 526 761 C526.5671875 760.33355469 527.134375 759.66710937 527.71875 758.98046875 C535.50973494 748.68796659 535.44402412 735.3035676 535.34057617 722.91650391 C535.33972731 721.46618162 535.34021009 720.01585805 535.34190369 718.5655365 C535.34275496 714.67587707 535.32527216 710.78650229 535.30418181 706.89690828 C535.28526811 702.81437452 535.28365311 698.73183229 535.28010559 694.64926147 C535.27082786 686.93960955 535.24627276 679.23008716 535.21605712 671.52049196 C535.18237906 662.73437941 535.1659936 653.94826028 535.15097082 645.16209912 C535.11971872 627.107978 535.06476098 609.05403416 535 591 C546.22 591 557.44 591 569 591 C568.89558594 598.981875 568.89558594 598.981875 568.7890625 607.125 C568.7583863 610.50655461 568.72950199 613.88793643 568.70703125 617.26953125 C568.67123434 622.63106136 568.62899809 627.99197367 568.54736328 633.35302734 C568.48192334 637.67786401 568.44624245 642.00203779 568.43073654 646.32733154 C568.41969406 647.9731489 568.39813003 649.61893205 568.36561966 651.26446533 C567.93929752 662.85545569 567.93929752 662.85545569 573.51278687 672.65893555 C574.0035672 673.10148682 574.49434753 673.54403809 575 674 C575.66 674.66 576.32 675.32 577 676 C581.12405009 677.52742596 585.70317001 677.76343134 589.89149761 676.37129498 C595.65851767 673.70434935 598.71513552 670.21500366 602.3918457 665.1262207 C603.62915213 663.4892277 604.8704319 661.85523247 606.11508179 660.22381592 C606.77104717 659.36059471 607.42701256 658.4973735 608.10285568 657.60799408 C658.31783889 592.6335086 658.31783889 592.6335086 696.82341862 587.5402422 C712.14302212 585.74662518 727.55450323 585.8826831 742.9375 586.5625 C743.62858998 586.59265339 744.31967996 586.62280679 745.03171206 586.65387392 C757.43938533 587.21135884 769.83103535 587.99270436 782.18325806 589.31134033 C783.87899098 589.49145298 783.87899098 589.49145298 785.60898113 589.67520428 C787.69126784 589.90472128 789.77201755 590.14894711 791.85034657 590.41190052 C804.15453965 591.81342523 813.51293376 588.45708018 823.44921875 581.21484375 C832.97945674 573.33500351 837.93381196 564.08806817 840 552 C840.54366612 545.54952849 840.40585098 539.05882246 840.38095093 532.59140015 C840.38441154 530.62888759 840.3891788 528.66637699 840.39513266 526.70387042 C840.40761661 521.33448784 840.40148412 515.96526593 840.39217401 510.59588289 C840.38537328 504.79624645 840.39586976 498.99663722 840.40411377 493.19700623 C840.41744185 481.84534056 840.41457761 470.49373445 840.40587585 459.14206646 C840.39909675 449.91617436 840.39818356 440.69029894 840.4014473 431.46440506 C840.401907 430.15062158 840.40236669 428.8368381 840.40284032 427.483243 C840.40355904 425.48335796 840.4042778 423.48347292 840.405021 421.4835879 C840.41419085 396.51062281 840.40588857 371.53769017 840.38973031 346.56473009 C840.37549094 324.38883914 840.37677099 302.21299988 840.39111328 280.03710938 C840.4071838 255.1058964 840.41354377 230.17471207 840.40427649 205.24349463 C840.40332085 202.58498423 840.40237774 199.92647382 840.4014473 197.26796341 C840.40075306 195.3059553 840.40075306 195.3059553 840.40004479 193.30431067 C840.39745505 184.08906031 840.4018255 174.8738283 840.40888596 165.65858078 C840.41730066 154.42909867 840.41502124 143.19967948 840.39904372 131.97020458 C840.39116117 126.2413933 840.38806931 120.51268691 840.39799118 114.78387642 C840.40693852 109.53842639 840.40200438 104.29317835 840.38605852 99.04774661 C840.38271096 97.15157587 840.38440422 95.25538802 840.39168589 93.3592283 C840.6172494 76.94642585 840.6172494 76.94642585 834.0625 62.1875 C833.53398438 61.45273437 833.00546875 60.71796875 832.4609375 59.9609375 C831.97882812 59.31382813 831.49671875 58.66671875 831 58 C830.1028125 56.6696875 830.1028125 56.6696875 829.1875 55.3125 C821.18432821 46.8520041 808.67513816 40.90882274 797.05503368 40.25053978 C794.57724984 40.22059834 792.09893465 40.22256339 789.62113953 40.2515564 C788.22952576 40.24605971 786.83792035 40.23794236 785.44633514 40.22746909 C781.66407852 40.20650351 777.8827816 40.22241389 774.10056818 40.24497008 C770.00581339 40.26278365 765.91117555 40.24573039 761.81642151 40.23324585 C753.81275052 40.21434297 745.80944211 40.22740336 737.8057982 40.25177173 C728.47722518 40.27910935 719.14873703 40.27572765 709.82013414 40.27150507 C693.17453023 40.26513644 676.52909795 40.28839983 659.88354492 40.32763672 C643.74384337 40.365671 627.60434277 40.37980246 611.46459961 40.36865234 C593.86719615 40.35653108 576.26988085 40.35689892 558.6724847 40.37962401 C556.79562652 40.38203849 554.91876835 40.38445046 553.04191017 40.38685989 C552.11856536 40.38806697 551.19522055 40.38927405 550.24389559 40.3905177 C543.7457492 40.39826723 537.2476357 40.39749231 530.74948692 40.3936882 C522.83134215 40.38943999 514.91337309 40.39992573 506.99527778 40.42891531 C502.95763122 40.4433802 498.92024029 40.45157717 494.88257217 40.44242859 C491.18346222 40.43425101 487.48487915 40.44467514 483.78584895 40.46968074 C481.82078889 40.47827123 479.85567312 40.46738287 477.89062899 40.45570219 C470.59049852 40.52788246 465.41332217 41.55509124 459 45 Z " fill="#FEFEFE" transform="translate(0,0)"/>
<path d="M0 0 C1.31115676 -0.00538554 2.62231351 -0.01077108 3.97320229 -0.01631981 C7.60191879 -0.03075718 11.23040784 -0.02653513 14.8591367 -0.019153 C18.77674365 -0.01441939 22.69430152 -0.02693286 26.6118927 -0.03717041 C34.28253388 -0.0543598 41.95309315 -0.05519816 49.62374859 -0.04995751 C55.85874309 -0.04591495 62.0937134 -0.04736038 68.32870674 -0.05270576 C69.66015586 -0.0538284 69.66015586 -0.0538284 71.01850294 -0.05497371 C72.82176336 -0.0565052 74.62502377 -0.05804354 76.42828418 -0.05958868 C93.33586096 -0.07331414 110.24339146 -0.06787563 127.15096719 -0.05640347 C142.61632821 -0.04647032 158.08156961 -0.05941307 173.54691219 -0.08333766 C189.43063919 -0.10772418 205.31431046 -0.11733767 221.1980558 -0.11068493 C230.11403098 -0.10719181 239.02991415 -0.10943096 247.94587517 -0.12693596 C255.5355482 -0.14165231 263.12506443 -0.14230079 270.71473437 -0.12486505 C274.58615674 -0.11634809 278.45729892 -0.11422229 282.32870674 -0.1295166 C286.52747081 -0.14589869 290.72555784 -0.1312273 294.92431641 -0.11352539 C296.14523324 -0.1231304 297.36615007 -0.1327354 298.62406439 -0.14263147 C306.64565343 -0.07294879 312.37604765 0.80105707 318.20793933 6.53231066 C320.52440768 10.17115861 320.58647161 13.17683795 320.54018784 17.35476494 C320.54719998 18.15534936 320.55421213 18.95593379 320.56143677 19.78077835 C320.5801053 22.47439178 320.57020891 25.1671442 320.5605011 27.86079407 C320.56797165 29.80703346 320.57717372 31.75326684 320.58796239 33.69949067 C320.61248372 39.05629106 320.61189435 44.41284223 320.60718489 49.76968598 C320.6063701 55.54351311 320.62843189 61.31725949 320.64741516 67.09104919 C320.68066995 78.40589779 320.69163579 89.72066305 320.69386467 101.03555642 C320.69576385 110.23018432 320.70397548 119.42478466 320.71666718 128.61940384 C320.74616522 150.43264413 320.77076565 172.24586296 320.76867294 194.0591259 C320.76857947 195.10568105 320.76857947 195.10568105 320.76848411 196.17337873 C320.76815168 199.70970012 320.76775551 203.24602151 320.76734528 206.7823429 C320.7672655 207.48468034 320.76718572 208.18701778 320.76710352 208.91063817 C320.76694177 210.33093555 320.76677458 211.75123292 320.76660195 213.17153029 C320.76415055 235.27249401 320.79418313 257.37321233 320.84889221 279.47410583 C320.91031902 304.29905025 320.94470747 329.12383218 320.94103932 353.94885743 C320.93970985 367.0953251 320.95076744 380.241516 320.99375153 393.38792038 C321.0301095 404.57969582 321.03892428 415.77106903 321.01171383 426.96287785 C320.99862112 432.67531311 320.99853774 438.38697597 321.03312683 444.09933853 C321.0644549 449.32680798 321.0590022 454.55288841 321.0239903 459.78032257 C321.01782057 461.67329255 321.02522735 463.56636449 321.0474306 465.45921431 C321.20256495 479.62023809 321.20256495 479.62023809 318.24897242 484.0558207 C314.02158273 487.85202341 310.5812064 489.50929361 304.93490601 489.53244019 C303.85684692 489.53933868 302.77878784 489.54623718 301.6680603 489.55334473 C300.4800029 489.5559581 299.2919455 489.55857147 298.06788635 489.56126404 C296.82062775 489.56795105 295.57336914 489.57463806 294.28831482 489.58152771 C291.57148734 489.59560745 288.85471393 489.60792973 286.1378727 489.61747551 C281.83851714 489.63292177 277.53923535 489.65687284 273.2399292 489.68237305 C261.01286992 489.75358559 248.78576782 489.81327441 236.55860901 489.86448669 C229.80841626 489.89283466 223.05829634 489.92824334 216.30818003 489.97114044 C212.03835641 489.99784995 207.76861518 490.01579417 203.49872458 490.02717769 C200.20922974 490.03848736 196.91982368 490.06259946 193.63038635 490.08470154 C191.86348198 490.08558525 191.86348198 490.08558525 190.06088257 490.08648682 C179.98311912 490.02840934 179.98311912 490.02840934 171.40187073 494.69676208 C170.22564148 496.02876648 170.22564148 496.02876648 169.02565002 497.38768005 C168.21378235 498.20478455 167.40191467 499.02188904 166.56544495 499.86375427 C165.29857849 501.14016785 165.29857849 501.14016785 164.00611877 502.44236755 C162.56730544 503.88856279 161.12800521 505.3342715 159.68849182 506.7797699 C158.70939235 507.76389205 157.73119308 508.74891067 156.75392151 509.73484802 C151.60155528 514.93148901 146.416487 520.02477979 140.85548401 524.78709412 C137.75701576 527.49737535 134.86147534 530.40403007 131.96315002 533.32518005 C131.35608215 533.93418152 130.74901428 534.54318298 130.12355042 535.17063904 C126.41028371 538.91983575 122.83858138 542.74796899 119.41627502 546.7665863 C117.39561095 549.12213571 115.31719419 551.29255396 113.02565002 553.38768005 C112.36565002 553.38768005 111.70565002 553.38768005 111.02565002 553.38768005 C111.02644562 552.72670822 111.02724121 552.06573639 111.02806091 551.38473511 C111.03050337 544.48965461 110.99122853 537.59569686 110.92799377 530.70091248 C110.9098534 528.1296765 110.90226167 525.55834317 110.90553284 522.98704529 C110.90839528 519.2851914 110.87301936 515.58534877 110.83033752 511.8837738 C110.84397842 510.16619118 110.84397842 510.16619118 110.8578949 508.41390991 C110.74397619 502.12290591 110.18430164 498.25247195 105.70048523 493.67492676 C102.11368567 490.91818037 99.31482956 490.13641005 94.79914856 490.10920715 C93.21324669 490.09246193 93.21324669 490.09246193 91.5953064 490.07537842 C89.86361458 490.07213814 89.86361458 490.07213814 88.09693909 490.0688324 C86.87715866 490.05878677 85.65737823 490.04874115 84.40063477 490.03839111 C81.06003197 490.01280202 77.71959896 489.99594521 74.37893772 489.98296309 C70.88618705 489.9673276 67.39352237 489.94053872 63.90083313 489.91493225 C57.2888376 489.86815182 50.67682588 489.83140418 44.06474948 489.79825938 C36.53633087 489.76003277 29.00799866 489.71062403 21.47965288 489.66027522 C5.99504771 489.55696632 -9.4896059 489.46770257 -24.97434998 489.38768005 C-25.18339376 478.98241889 -25.34305208 468.5776616 -25.44065952 458.17072392 C-25.48752092 453.33758143 -25.55101926 448.50588118 -25.65330505 443.67356873 C-25.75149993 439.00500891 -25.80499064 434.337831 -25.82824516 429.66831779 C-25.84480392 427.89203075 -25.87714204 426.1158147 -25.92592049 424.34012032 C-26.29251118 410.434902 -26.29251118 410.434902 -23.0316925 405.37055969 C-20.79389162 403.12387129 -18.51600196 401.27388847 -15.97434998 399.38768005 C-14.79627597 398.14667521 -13.64412496 396.87974646 -12.53684998 395.57518005 C-11.97481873 394.91775818 -11.41278748 394.2603363 -10.83372498 393.58299255 C-10.22013123 392.85853943 -9.60653748 392.1340863 -8.97434998 391.38768005 C-7.86833435 390.11537537 -7.86833435 390.11537537 -6.73997498 388.81736755 C4.48285532 375.70023787 13.82783285 361.70441026 21.91920471 346.46531677 C22.96315495 344.50503069 24.02508848 342.55601614 25.09596252 340.6103363 C28.0132869 335.28225224 30.75160909 330.01863856 33.02565002 324.38768005 C33.31609192 323.76667419 33.60653381 323.14566833 33.90577698 322.50584412 C36.73546544 316.45437228 38.70588863 310.3070648 40.52565002 303.88768005 C40.82898254 302.82235046 41.13231506 301.75702087 41.44483948 300.65940857 C42.31570416 297.5716704 43.17238167 294.48031894 44.02565002 291.38768005 C44.23753967 290.63986267 44.44942932 289.89204529 44.66773987 289.12156677 C57.34008169 243.90762851 54.38303128 194.47517764 39.02565002 150.38768005 C38.56960142 148.9962834 38.11523726 147.60433376 37.66236877 146.2118988 C34.31571572 136.10901112 30.05384533 126.75693041 25.02565002 117.38768005 C24.51759827 116.42378357 24.51759827 116.42378357 23.99928284 115.44041443 C13.98007614 96.50573131 1.50598421 79.29833391 -12.97044373 63.5400238 C-13.64478455 62.78229675 -13.64478455 62.78229675 -14.33274841 62.00926208 C-15.99328669 60.27597573 -15.99328669 60.27597573 -18.29563904 58.77781677 C-21.8044969 56.07789552 -24.45553595 53.65442688 -25.47615051 49.19526672 C-26.143944 43.674564 -26.08171591 38.1625482 -25.92796326 32.61180115 C-25.84915163 29.63017616 -25.84589921 26.6553705 -25.85325623 23.6728363 C-25.83294303 21.77044014 -25.80835264 19.8680838 -25.77903748 17.96580505 C-25.77661041 17.07927246 -25.77418335 16.19273987 -25.77168274 15.27934265 C-25.62636672 11.06522901 -25.39042654 8.96097529 -22.86155701 5.47654724 C-15.35197854 0.04343771 -9.0642256 -0.04453789 0 0 Z " fill="#FEFEFE" transform="translate(488.97434997558594,70.61231994628906)"/>
<path d="M0 0 C1.70736328 0.47566406 1.70736328 0.47566406 3.44921875 0.9609375 C12.09000349 3.39995273 19.98067566 7.04406531 28 11 C29.36189843 11.66162454 30.72387861 12.32308085 32.0859375 12.984375 C61.62637577 27.42800584 87.82467753 47.88416591 108 74 C108.73734375 74.93199219 109.4746875 75.86398438 110.234375 76.82421875 C116.18519664 84.50898669 121.20789163 92.56520559 126 101 C126.36013184 101.62841797 126.72026367 102.25683594 127.09130859 102.90429688 C131.44294018 110.55369553 135.03113574 118.09818416 137.796875 126.48828125 C138.7640256 129.31123058 139.81628864 132.03196982 140.94921875 134.7890625 C142.97322828 139.80190662 144.59268065 144.86277415 146.0625 150.0625 C146.44764771 151.42169556 146.44764771 151.42169556 146.84057617 152.80834961 C151.78141338 170.70927426 153.23313526 188.48326292 153.25 207 C153.25100708 207.77179596 153.25201416 208.54359192 153.25305176 209.33877563 C153.24239281 221.4490659 152.63964547 233.13956154 150 245 C149.8448291 245.70560059 149.6896582 246.41120117 149.52978516 247.13818359 C148.47899045 251.79659967 147.27032728 256.39687493 146 261 C145.69191406 262.15628906 145.38382812 263.31257813 145.06640625 264.50390625 C143.26885944 271.06010394 141.21825633 277.51347985 139 283.9375 C138.76297363 284.63544678 138.52594727 285.33339355 138.28173828 286.05249023 C136.63643898 290.7130546 134.51244348 294.74573646 132 299 C131.23959428 301.26985894 131.23959428 301.26985894 131 303 C130.34 303 129.68 303 129 303 C128.731875 303.8765625 128.46375 304.753125 128.1875 305.65625 C124.35594928 316.44509019 116.77738638 325.87319571 110 335 C109.37996094 335.83660156 108.75992187 336.67320312 108.12109375 337.53515625 C104.42090396 342.40292333 100.43551103 346.96239706 96.3046875 351.46875 C94.80677175 353.11391849 93.3312204 354.77983156 91.8828125 356.46875 C70.24351254 381.51643787 38.77454406 398.86642096 8 410 C6.96875 410.39832031 5.9375 410.79664063 4.875 411.20703125 C-3.79238076 414.36701382 -12.60766624 416.35314432 -21.625 418.25 C-22.83994141 418.50837646 -24.05488281 418.76675293 -25.30664062 419.03295898 C-47.55760428 423.55212127 -72.62113666 424.11937712 -95 420 C-96.16184814 419.79068848 -96.16184814 419.79068848 -97.34716797 419.57714844 C-109.37035055 417.38604029 -121.39027414 414.86990862 -133 411 C-141.86462053 409.80987676 -146.95545619 411.98373468 -154 417.1875 C-154.89936279 417.81954346 -155.79872559 418.45158691 -156.7253418 419.1027832 C-158.58609961 420.41149283 -160.43988768 421.73016753 -162.28662109 423.05859375 C-165.63435395 425.45387643 -169.03262435 427.76831101 -172.43945312 430.07836914 C-177.86375285 433.75651312 -183.256761 437.48002744 -188.63671875 441.22265625 C-189.37237061 441.7328833 -190.10802246 442.24311035 -190.8659668 442.76879883 C-192.25118399 443.73025778 -193.63429203 444.6947653 -195.01489258 445.6628418 C-197.66300843 447.49973539 -199.9244846 448.9748282 -203 450 C-203 450.66 -203 451.32 -203 452 C-203.99 452 -204.98 452 -206 452 C-205.38929478 442.70062511 -203.26832263 433.84835745 -201.125 424.8125 C-194.44544161 402.50976296 -194.44544161 402.50976296 -194 380 C-196.08625532 377.46298361 -196.08625532 377.46298361 -199 375 C-200.21485587 373.86346724 -201.4269002 372.72392467 -202.63671875 371.58203125 C-203.98696862 370.3255095 -205.33722946 369.06899954 -206.6875 367.8125 C-209.46227227 365.21250664 -212.23194316 362.60713971 -215 360 C-215.95132813 359.10539062 -216.90265625 358.21078125 -217.8828125 357.2890625 C-224.14010701 351.23296717 -229.45422389 344.62871586 -234.69921875 337.70214844 C-235.89211026 336.14118005 -237.11648058 334.60439928 -238.34375 333.0703125 C-248.81009014 319.76626747 -256.11777634 304.38637264 -263 289 C-263.48339844 287.93136719 -263.96679688 286.86273438 -264.46484375 285.76171875 C-267.25807748 279.35171428 -269.299915 272.88244558 -271.10546875 266.12890625 C-271.9239756 263.05374133 -271.9239756 263.05374133 -273.0546875 260.40625 C-274.43362008 256.89623979 -274.86913329 253.39418963 -275.42578125 249.67578125 C-275.82156147 247.14224935 -276.28135516 244.61817196 -276.79296875 242.10546875 C-279.05599002 230.3840773 -279.30061367 218.77147561 -279.3125 206.875 C-279.31590393 206.07733215 -279.31930786 205.27966431 -279.32281494 204.45782471 C-279.35849869 189.82786475 -278.83157077 174.99140931 -274.68359375 160.87109375 C-274.0992375 158.4167975 -273.81655073 156.2157383 -273.6015625 153.71484375 C-273.10297189 148.85749238 -271.70178424 144.65697802 -269.9375 140.125 C-269.62659424 139.309104 -269.31568848 138.49320801 -268.99536133 137.65258789 C-268.01183522 135.09561609 -267.00850592 132.54721179 -266 130 C-265.68611328 129.19643066 -265.37222656 128.39286133 -265.04882812 127.56494141 C-246.3750998 80.07504915 -211.89923892 42.50879709 -168 17 C-167.36602295 16.62020996 -166.7320459 16.24041992 -166.07885742 15.84912109 C-161.67761759 13.24547126 -157.95085897 12.0422861 -153 11 C-153 10.34 -153 9.68 -153 9 C-148.05501318 7.25971681 -143.10786047 5.5260442 -138.15625 3.8046875 C-135.37336339 2.83625092 -132.60402416 1.85199913 -129.84375 0.8203125 C-89.49735971 -13.88424541 -40.54808676 -12.94532121 0 0 Z " fill="#FDFEFE" transform="translate(358,94)"/>
<path d="M0 0 C7.60890748 -1.43034038 16.40853564 -2.62189498 23.39465332 1.45001221 C27.73411831 4.50637096 31.47777518 8.14111081 35.16503906 11.94189453 C35.69707947 12.48167938 36.22911987 13.02146423 36.77728271 13.5776062 C45.91742293 23.02582706 45.91742293 23.02582706 45.97924805 28.61425781 C45.68665525 32.17857006 45.1363848 35.36415042 44.22753906 38.81689453 C43.05747285 43.5298124 42.28364359 47.98375776 42.07128906 52.83251953 C41.69615291 55.24204791 41.08926561 57.19361722 40.27661133 59.48193359 C38.61596199 64.39510681 37.5005858 69.33243217 36.47363281 74.41064453 C36.2828566 75.33099487 36.09208038 76.25134521 35.89552307 77.19958496 C35.29275915 80.11266345 34.69741968 83.02719707 34.10253906 85.94189453 C33.50241558 88.85622757 32.90077061 91.77024314 32.29884338 94.6842041 C31.92677585 96.48819422 31.55603001 98.29245766 31.18687439 100.0970459 C30.19585203 104.93231872 29.16137288 109.75401913 28.06297302 114.56611633 C26.9355263 119.88066649 26.88725017 123.99359798 29.47753906 128.81689453 C33.41062816 133.69311016 33.41062816 133.69311016 39.22753906 135.44189453 C48.84354456 136.0017492 56.82571226 129.20374466 64.29003906 123.81689453 C66.04744131 122.5676193 67.80525895 121.31892821 69.56347656 120.07080078 C70.42553711 119.4560791 71.28759766 118.84135742 72.17578125 118.20800781 C75.73018228 115.68618189 79.31851885 113.21562008 82.91503906 110.75439453 C84.22235331 109.85859415 85.52964517 108.9627611 86.83691406 108.06689453 C87.47306641 107.63119141 88.10921875 107.19548828 88.76464844 106.74658203 C90.63566791 105.4620589 92.50253977 104.17173828 94.36816406 102.87939453 C103.70340591 96.42090662 113.13079172 90.10709135 122.59277344 83.83569336 C123.58083984 83.17980225 124.56890625 82.52391113 125.58691406 81.84814453 C126.46959961 81.26355469 127.35228516 80.67896484 128.26171875 80.07666016 C129.81519586 79.01996748 131.33606536 77.91290417 132.81152344 76.74975586 C135.55385003 74.81473958 137.35506836 75.10535445 140.66503906 75.44189453 C143.45612777 76.08448389 146.17794024 76.91414105 148.91503906 77.75439453 C155.28716859 79.61754407 161.61119223 81.12442245 168.16503906 82.19189453 C168.86918945 82.30702393 169.57333984 82.42215332 170.29882812 82.54077148 C178.82583458 83.86175855 187.33074796 84.59753467 195.95800781 84.68017578 C196.8147963 84.68992432 197.67158478 84.69967285 198.55433655 84.7097168 C237.84825599 85.07415801 237.84825599 85.07415801 275.66503906 75.44189453 C277.05249713 75.05622 278.44789989 74.69684298 279.85253906 74.37939453 C296.87685832 70.19308652 312.60945905 62.14835791 328.10253906 54.12939453 C329.56784058 53.37432617 329.56784058 53.37432617 331.06274414 52.60400391 C335.65734114 50.19134724 339.62554737 47.71863056 343.66503906 44.44189453 C344.65503906 44.44189453 345.64503906 44.44189453 346.66503906 44.44189453 C346.67383842 45.81252548 346.67383842 45.81252548 346.68281555 47.21084595 C346.74078019 55.83280934 346.81287867 64.45451472 346.90075397 73.07622719 C346.94543309 77.50848183 346.98469458 81.94064508 347.01147461 86.37304688 C347.03753221 90.65260895 347.07795183 94.93181886 347.12822533 99.21116257 C347.14487747 100.8417357 347.15640204 102.47236972 347.16265297 104.1030159 C347.17231229 106.3916417 347.20039186 108.67936992 347.23266602 110.96777344 C347.24376907 112.26905182 347.25487213 113.5703302 347.26631165 114.91104126 C347.84250969 120.01345122 349.40370475 123.27516029 353.16503906 126.75439453 C356.99169177 129.33738511 359.90874157 129.57986024 364.42163086 129.6472168 C365.60262863 129.66716202 366.7836264 129.68710724 368.00041199 129.70765686 C369.27548111 129.72436935 370.55055023 129.74108185 371.86425781 129.75830078 C373.82224052 129.78947243 373.82224052 129.78947243 375.81977844 129.8212738 C379.2868626 129.87641726 382.75400552 129.92586048 386.22119141 129.97412109 C389.76046975 130.02439263 393.29966296 130.08004916 396.83886719 130.13525391 C403.78085062 130.24274091 410.72291101 130.3442068 417.66503906 130.44189453 C417.80527015 149.61770245 417.91103987 168.79340616 417.97591209 187.9696207 C418.00683559 196.87372044 418.048987 205.77750138 418.11767578 214.68139648 C418.1775243 222.44306575 418.21619918 230.20450411 418.22957003 237.9663977 C418.23738472 242.07548513 418.25571842 246.18391206 418.2994194 250.29278755 C418.34024736 254.16301257 418.35268807 258.0323072 418.34368515 261.90272713 C418.3453313 263.32050133 418.35720702 264.7383077 418.38027191 266.15589523 C418.56627502 278.18103501 418.56627502 278.18103501 414.93496704 282.71568298 C411.73279752 285.94385443 408.26612165 287.30083106 403.75798225 287.69802094 C402.14142896 287.70242062 402.14142896 287.70242062 400.49221802 287.70690918 C399.25016602 287.71518234 398.00811401 287.72345551 396.72842407 287.73197937 C395.35980214 287.73115486 393.99118029 287.73015724 392.62255859 287.72900391 C391.17506527 287.73503103 389.72757544 287.74195601 388.28009033 287.74971008 C385.16716613 287.7645811 382.05430589 287.7733438 378.94134903 287.77742004 C374.01583727 287.78414355 369.090462 287.80591013 364.16500854 287.82995605 C353.70671741 287.87889739 343.24839734 287.91122828 332.79003906 287.94189453 C321.50570882 287.97499863 310.2214321 288.01097789 298.93718421 288.06602526 C294.04431373 288.08932749 289.15153811 288.10310331 284.25861764 288.10951996 C281.20995298 288.11547305 278.16136488 288.12958212 275.11273956 288.14586449 C273.70308556 288.15172308 272.29341277 288.15421633 270.8837471 288.15302467 C259.41838808 287.77162533 259.41838808 287.77162533 249.29003906 292.31689453 C246.63570951 295.78794087 246.53691107 299.11527489 246.4597168 303.39404297 C246.43977158 304.37475769 246.41982635 305.35547241 246.39927673 306.36590576 C246.38256424 307.41707581 246.36585175 308.46824585 246.34863281 309.55126953 C246.31746117 311.17418915 246.31746117 311.17418915 246.28565979 312.82989502 C246.22030975 316.28383066 246.16134677 319.7378419 246.10253906 323.19189453 C246.05934002 325.53435025 246.01572529 327.87679833 245.97167969 330.21923828 C245.86464323 335.96004394 245.76284981 341.70092468 245.66503906 347.44189453 C241.9317998 346.19748144 241.06643742 344.71501485 238.66503906 341.62939453 C235.2590668 337.35806124 231.75488949 333.25917828 228.04003906 329.25439453 C227.56816162 328.74465088 227.09628418 328.23490723 226.61010742 327.7097168 C225.9199353 326.96419556 225.9199353 326.96419556 225.21582031 326.20361328 C220.44399202 321.03717744 215.88027234 315.69724056 211.31005859 310.35302734 C209.74075569 308.51983364 208.16799254 306.68965613 206.59472656 304.85986328 C204.83413213 302.81188269 203.09091587 300.75391979 201.36035156 298.68017578 C200.69777344 297.90029297 200.03519531 297.12041016 199.35253906 296.31689453 C198.79953125 295.65431641 198.24652344 294.99173828 197.67675781 294.30908203 C192.35920112 289.37356339 187.66064247 287.84705491 180.50537109 287.96328735 C179.71211992 287.9600195 178.91886875 287.95675164 178.10157967 287.95338476 C175.45830091 287.94716271 172.81603483 287.96926012 170.17285156 287.99121094 C168.27187111 287.99229995 166.37088884 287.99154563 164.46990967 287.98908997 C160.3834582 287.98730376 156.297281 287.99764057 152.21087646 288.01716995 C145.7477718 288.04708663 139.28493142 288.04447827 132.82177734 288.03646851 C116.77071069 288.02137799 100.71971936 288.04314046 84.66870117 288.08428955 C72.18949758 288.11622618 59.7105995 288.1354998 47.23135948 288.11277711 C40.80777264 288.1025213 34.38503669 288.11986122 27.96156311 288.15791726 C23.96447195 288.17545512 19.96771125 288.16807142 15.9706192 288.15376854 C14.11909161 288.15218818 12.26752203 288.16087811 10.41609955 288.18066978 C7.88472842 288.20627964 5.3560662 288.19485335 2.82470703 288.17446899 C2.09502779 288.19078357 1.36534855 288.20709815 0.61355782 288.22390711 C-4.62184158 288.12489049 -7.22196067 286.44644134 -10.89526176 283.02160871 C-13.71942979 279.92278198 -14.58529336 277.97093633 -14.59781647 273.87561417 C-14.60549876 272.93344111 -14.61318105 271.99126805 -14.62109613 271.02054429 C-14.61936317 269.98350161 -14.61763021 268.94645894 -14.61584473 267.87799072 C-14.62178697 266.77780727 -14.62772922 265.67762382 -14.63385153 264.54410148 C-14.65126651 260.83845263 -14.65424544 257.13293268 -14.65722656 253.42724609 C-14.66648004 250.77809026 -14.67648745 248.12894628 -14.68731689 245.47979736 C-14.71449008 238.26899797 -14.72653414 231.05822081 -14.73533821 223.84737873 C-14.74086231 219.34514456 -14.74933692 214.84291898 -14.75834656 210.34069061 C-14.78273342 197.87623254 -14.80333131 185.41178137 -14.81009674 172.94729996 C-14.81053587 172.14941122 -14.81097501 171.35152248 -14.81142744 170.52945529 C-14.811864 169.72965185 -14.81230056 168.92984841 -14.81275034 168.1058085 C-14.81363727 166.48508978 -14.8145304 164.86437106 -14.81542969 163.24365234 C-14.81587255 162.43971903 -14.81631541 161.63578572 -14.81677169 160.8074908 C-14.82466691 147.78225624 -14.85957178 134.75724552 -14.90614873 121.73209742 C-14.95357861 108.36052297 -14.97850058 94.98906082 -14.98083258 81.61740088 C-14.98266604 74.10921273 -14.9941687 66.60131615 -15.0304718 59.09320831 C-15.06127809 52.69937201 -15.07151284 46.30591736 -15.0549956 39.91202095 C-15.04718309 36.65012328 -15.05230081 33.38915464 -15.07711029 30.12731934 C-15.10244759 26.58879323 -15.09085479 23.05224416 -15.06994629 19.51373291 C-15.0860591 18.48561312 -15.10217191 17.45749333 -15.11877298 16.39821839 C-15.03544937 10.37573808 -14.09957935 7.05173443 -9.88483572 2.6659162 C-6.84392129 0.26433821 -3.63974557 0.6888268 0 0 Z " fill="#FDFDFE" transform="translate(86.3349609375,460.55810546875)"/>
<path d="M0 0 C9.9 0.66 19.8 1.32 30 2 C29 7 29 7 27.52416992 8.3840332 C25.16268418 10.88774522 25.13722725 13.49938222 24.61328125 16.85546875 C24.50654587 17.51710526 24.39981049 18.17874176 24.2898407 18.86042786 C23.95256896 20.96782016 23.63234328 23.07739946 23.3125 25.1875 C23.08640645 26.61931793 22.85920555 28.05096147 22.63085938 29.48242188 C22.07439029 32.98635115 21.5331742 36.49244155 21 40 C29.43438761 39.89083649 37.86871436 39.77792705 46.30299282 39.66066074 C50.22240108 39.60627575 54.14181682 39.5530244 58.0612793 39.50268555 C74.04091383 39.29670079 90.00227495 39.03736053 105.9694519 38.33377075 C113.00742749 38.02526715 120.01690273 37.87158788 127.0625 37.9375 C130.341875 37.958125 133.62125 37.97875 137 38 C137 45.26 137 52.52 137 60 C123.20703125 60.12890625 123.20703125 60.12890625 116.56640625 59.51367188 C106.85265612 58.75146256 97.12547847 58.76588209 87.38671875 58.68359375 C85.32021206 58.6629808 83.25370916 58.64198333 81.18721008 58.62062073 C75.79020296 58.56584776 70.39316066 58.51624409 64.99609375 58.46777344 C59.47197398 58.41722807 53.94790426 58.36171576 48.42382812 58.30664062 C37.61592834 58.1996081 26.80798479 58.09804497 16 58 C15.34 62.62 14.68 67.24 14 72 C13.34 72 12.68 72 12 72 C11.86722656 72.73605469 11.73445313 73.47210938 11.59765625 74.23046875 C11.42105469 75.20628906 11.24445313 76.18210937 11.0625 77.1875 C10.80146484 78.63189453 10.80146484 78.63189453 10.53515625 80.10546875 C10.04777524 82.74159525 9.52574867 85.37125667 9 88 C39.69 88 70.38 88 102 88 C100.87249299 97.02005612 100.87249299 97.02005612 99.94921875 100.40234375 C99.64649048 101.51307251 99.64649048 101.51307251 99.33764648 102.64624023 C99.12309814 103.40235596 98.9085498 104.15847168 98.6875 104.9375 C98.46457275 105.73164307 98.24164551 106.52578613 98.01196289 107.34399414 C96.65339027 112.06189341 95.11528544 116.52562065 92.95703125 120.9453125 C91.83576787 123.35259632 90.98917778 125.80176127 90.125 128.3125 C86.52058583 138.31406145 81.26328475 147.44900923 76.0625 156.6875 C75.57265625 157.56647949 75.0828125 158.44545898 74.578125 159.35107422 C71.57644308 164.61886759 68.31321571 169.35433724 64.41577148 174.00317383 C62.97005597 176.04223352 62.42177392 177.55726878 62 180 C68.98799912 183.76004014 75.21523522 186.49327133 83 188 C83.66 188.66 84.32 189.32 85 190 C87.74820008 190.88206422 90.45784297 191.65967942 93.25 192.375 C94.08539307 192.59124023 94.92078613 192.80748047 95.78149414 193.03027344 C109.57553123 196.49947822 123.75794345 199.39906934 138 200 C138 200.99 138 201.98 138 203 C137 204 136 205 135 206 C130.8405935 212.17202255 129.01258901 218.88100163 127 226 C120.92357307 226.24801743 115.93808107 225.47244052 110.125 223.75 C109.33488525 223.52328613 108.54477051 223.29657227 107.73071289 223.06298828 C102.74523473 221.6025491 97.9134596 219.93852764 93.13671875 217.88671875 C91.03061092 217.01270325 88.93257729 216.34346585 86.75 215.6875 C81.36595074 213.95349125 76.43875912 211.3084741 71.4296875 208.71875 C69.1544018 207.57851571 66.83805919 206.51661194 64.48828125 205.5390625 C59.66862402 203.41258439 55.41323766 200.58123121 50.98828125 197.7421875 C47.68099487 195.61613754 47.68099487 195.61613754 44 195 C41.84670028 196.40221908 40.00996304 197.78863431 38.0625 199.4375 C21.10964026 213.08499488 1.76862463 221.46582387 -18.4609375 229.03369141 C-20.0806404 229.65011295 -21.69148284 230.29072369 -23.2890625 230.96240234 C-26.21042442 232.16937889 -28.63352013 232.998473 -31.8125 233.01171875 C-34.89874745 231.5843293 -35.55587809 229.85254072 -37 226.8125 C-38.71845097 223.38005 -40.30923967 220.36292466 -42.875 217.5 C-45 215 -45 215 -45 212 C-44.31599121 211.8141333 -43.63198242 211.6282666 -42.92724609 211.43676758 C-24.25553885 206.36762264 -24.25553885 206.36762264 -6 200 C-5.05253906 199.6596875 -4.10507812 199.319375 -3.12890625 198.96875 C8.77513128 194.44618486 19.48474596 187.09362375 30 180 C29.45274476 175.85081027 26.99243865 173.19560466 24.4375 170.0625 C19.40311246 163.68566905 15.0236242 157.06482288 11 150 C10.60329102 149.3076123 10.20658203 148.61522461 9.79785156 147.90185547 C8.53352993 145.67384416 7.29418387 143.43369921 6.0625 141.1875 C5.67247803 140.49430664 5.28245605 139.80111328 4.88061523 139.08691406 C2.32909875 134.32620624 1.38045986 130.39286758 1 125 C12.47572816 119 12.47572816 119 19 119 C19.1959375 119.53625 19.391875 120.0725 19.59375 120.625 C24.89250654 134.51139644 31.79243805 149.16695642 41.234375 160.73828125 C43 163 43 163 43 165 C48.45391116 162.55412302 50.55521948 158.46460177 53.4375 153.5 C53.9212207 152.68192871 54.40494141 151.86385742 54.90332031 151.02099609 C55.85709157 149.40112434 56.80535676 147.77799555 57.74755859 146.15136719 C58.74168639 144.4437153 59.76606946 142.75368309 60.80078125 141.0703125 C67.14396186 130.36726382 70.60159601 117.89441395 74 106 C49.58 106.33 25.16 106.66 0 107 C-4.95 116.9 -4.95 116.9 -10 127 C-12.22774272 131.06435504 -14.45776031 135.07711818 -16.8125 139.0625 C-17.39942627 140.06071777 -17.98635254 141.05893555 -18.59106445 142.08740234 C-29.14945845 159.8388525 -41.06385633 176.64981496 -55.05078125 191.8671875 C-57.46263055 194.50620497 -59.74050147 197.23029213 -62 200 C-66.45210497 199.58261516 -69.30046232 197.65484884 -72.94140625 195.2734375 C-76.7333817 192.92773732 -80.77504048 191.40831984 -85 190 C-84.15511302 185.3695002 -81.35179409 183.23727036 -77.9375 180.25 C-76.74253387 179.17423776 -75.54852091 178.09741576 -74.35546875 177.01953125 C-73.77587402 176.49955566 -73.1962793 175.97958008 -72.59912109 175.44384766 C-66.21634969 169.68083848 -60.64160095 163.42810532 -55.32177734 156.67675781 C-54.38874245 155.49314429 -53.45112233 154.31313833 -52.51025391 153.13574219 C-42.75871143 140.904994 -33.80923884 128.13028321 -27 114 C-26.34 114 -25.68 114 -25 114 C-24.72800781 113.15824219 -24.45601562 112.31648438 -24.17578125 111.44921875 C-22.95046347 107.85468188 -21.59595843 104.33922045 -20.1875 100.8125 C-19.92324219 100.14669922 -19.65898437 99.48089844 -19.38671875 98.79492188 C-17.90596207 95.10370872 -16.295873 91.55106279 -14.5 88 C-10.62563763 78.70153032 -8.54273214 68.74713986 -6 59 C-28.11 59.33 -50.22 59.66 -73 60 C-73 52.41 -73 44.82 -73 37 C-69.65875 37.144375 -66.3175 37.28875 -62.875 37.4375 C-42.26018733 38.27452186 -21.62668855 38.58894655 -1 39 C-1.00580078 38.22180908 -1.01160156 37.44361816 -1.01757812 36.6418457 C-1.05162518 28.47723991 -0.8436821 20.3441158 -0.5 12.1875 C-0.335 8.165625 -0.17 4.14375 0 0 Z " fill="#0675FE" transform="translate(277,200)"/>
<path d="M0 0 C1.05617271 -0.0049926 1.05617271 -0.0049926 2.13368225 -0.01008606 C3.62581731 -0.0151578 5.11796375 -0.01749431 6.61010742 -0.01733398 C8.89716232 -0.01951884 11.18373378 -0.03766674 13.47070312 -0.05664062 C14.91796709 -0.05957479 16.36523336 -0.06155943 17.8125 -0.0625 C18.49900131 -0.06968552 19.18550262 -0.07687103 19.89280701 -0.08427429 C24.74383256 -0.06085494 24.74383256 -0.06085494 26.97265625 2.16796875 C27.79645473 4.1046178 28.55814069 6.06794929 29.28515625 8.04296875 C32.06096141 15.44240246 35.06117532 22.73038281 38.1875 29.98828125 C40.99827377 36.57968045 43.45110561 43.24751916 45.80786133 50.01025391 C48.20024074 56.86309355 50.62841636 63.65030803 53.97265625 70.10546875 C56.03048679 74.09251542 57.48605855 78.22170655 58.97265625 82.44921875 C59.87363579 84.89875688 60.87523621 87.23915678 61.97265625 89.60546875 C63.96508547 93.95612474 65.42716753 98.41461214 66.84765625 102.98046875 C68.02424787 106.314145 69.41610026 109.4815105 70.87109375 112.70068359 C72.83025451 117.0888216 74.64955937 121.53444728 76.47265625 125.98046875 C76.8706543 126.95024658 77.26865234 127.92002441 77.67871094 128.91918945 C80.04754101 134.74410939 82.18879592 140.58001125 84.08203125 146.578125 C85.38040037 150.35364574 87.06295212 153.92001253 88.7578125 157.53125 C90.25690006 160.78489664 91.56305451 164.09578262 92.87109375 167.4296875 C94.20369757 170.74229487 95.61811582 174.01562648 97.03515625 177.29296875 C99.15545789 182.21376906 101.12863739 187.1388264 102.97265625 192.16796875 C104.0415393 194.77165822 105.1151079 197.37299385 106.203125 199.96875 C106.97265625 202.16796875 106.97265625 202.16796875 106.97265625 205.16796875 C97.07265625 205.16796875 87.17265625 205.16796875 76.97265625 205.16796875 C73.13320174 196.72116884 69.7833327 188.45060236 66.7890625 179.71484375 C64.58606019 173.37349132 62.21688189 167.37221153 59.109375 161.421875 C56.97424686 157.18830476 54.97265625 152.9657662 54.97265625 148.16796875 C24.61265625 148.49796875 -5.74734375 148.82796875 -37.02734375 149.16796875 C-38.34734375 153.45796875 -39.66734375 157.74796875 -41.02734375 162.16796875 C-42.01734375 163.48796875 -43.00734375 164.80796875 -44.02734375 166.16796875 C-44.88375361 168.96371809 -44.88375361 168.96371809 -45.46484375 171.98046875 C-46.44399482 176.20147234 -47.5474247 179.38839068 -49.921875 183.0546875 C-51.85313323 186.7465981 -52.97294391 190.77660623 -54.18896484 194.7512207 C-55.3940822 198.60352289 -56.50589408 201.99671964 -59.02734375 205.16796875 C-62.0300293 205.7355957 -62.0300293 205.7355957 -65.6640625 205.65625 C-66.96279297 205.64013672 -68.26152344 205.62402344 -69.59960938 205.60742188 C-70.97137074 205.56564484 -72.34311552 205.5233201 -73.71484375 205.48046875 C-75.09826757 205.4553862 -76.48173452 205.43257293 -77.86523438 205.41210938 C-81.25369139 205.35307702 -84.6399776 205.27076957 -88.02734375 205.16796875 C-87.40843961 200.76137129 -86.28264248 197.56929461 -84.19921875 193.62890625 C-82.24416306 189.52328931 -80.84647969 185.22234437 -79.37109375 180.92578125 C-78.05709845 177.25117812 -76.6346623 173.64126324 -75.17382812 170.0234375 C-73.88658606 166.81739339 -72.62725287 163.60116027 -71.37109375 160.3828125 C-70.90574219 159.19236328 -70.44039062 158.00191406 -69.9609375 156.77539062 C-69.0038843 154.32538659 -68.04815852 151.87486362 -67.09375 149.42382812 C-64.81137299 143.59143813 -62.46663213 137.81909434 -59.88085938 132.11499023 C-58.60587916 129.2065328 -57.56367834 126.23093747 -56.52734375 123.23046875 C-53.86445151 115.66395786 -51.01556638 108.26388082 -47.65234375 100.98046875 C-43.34369718 91.58577454 -39.62682065 82.00113796 -36.27734375 72.23046875 C-33.77602535 64.97033669 -30.92217765 57.87865773 -27.96484375 50.79296875 C-27.55331055 49.8069165 -27.14177734 48.82086426 -26.71777344 47.80493164 C-24.69067434 42.991177 -22.60193921 38.21769406 -20.41015625 33.4765625 C-18.32617867 28.92556209 -16.56042156 24.34661423 -14.96484375 19.60546875 C-14.46116518 18.14530475 -13.95596065 16.68566622 -13.44921875 15.2265625 C-13.20880859 14.5341748 -12.96839844 13.84178711 -12.72070312 13.12841797 C-8.08214659 0.0130627 -8.08214659 0.0130627 0 0 Z " fill="#0575FE" transform="translate(627.02734375,213.83203125)"/>
<path d="M0 0 C2.56695636 0.39491636 4.67123994 0.83561997 7 2 C6.52814019 6.24673826 5.94075105 10.34062635 4.98046875 14.50390625 C3.76145832 20.53222425 3.66899201 26.42895339 3.6875 32.5625 C3.67138672 33.63435547 3.65527344 34.70621094 3.63867188 35.81054688 C3.6346137 42.44565938 4.43153166 47.87873079 7 54 C7.27948486 54.69109863 7.55896973 55.38219727 7.84692383 56.09423828 C13.54271821 69.58756982 26.63984011 77.97033574 39.50390625 83.65234375 C52.25695823 88.56832468 65.82187499 91.31249811 79.4765625 91.30078125 C80.43680832 91.30638062 81.39705414 91.31197998 82.38639832 91.31774902 C85.46609599 91.3295631 88.54530362 91.32343525 91.625 91.3125 C93.20551651 91.30976578 93.20551651 91.30976578 94.81796265 91.30697632 C110.42884237 91.26138735 125.59880767 90.73810744 141 88 C142.58748047 87.73461426 142.58748047 87.73461426 144.20703125 87.46386719 C158.109345 85.12118975 171.55721328 81.99880257 184.96630859 77.64697266 C187.95888498 76.69495256 190.97568707 75.84520534 194 75 C192.5121153 61.95823511 188.58868742 50.98733881 182.8125 39.3125 C182.32725861 38.33163925 182.32725861 38.33163925 181.83221436 37.33096313 C178.99563748 30.74040027 178.99563748 30.74040027 175 25 C175.13358589 18.22274241 178.24167437 13.98152241 182.0625 8.5625 C182.63033203 7.73556641 183.19816406 6.90863281 183.78320312 6.05664062 C185.17755306 4.02956047 186.58314344 2.01138194 188 0 C189.87060547 0.29760742 189.87060547 0.29760742 192 1 C193.55582929 3.43355186 194.85765054 5.73684111 196.125 8.3125 C196.47175781 8.98990234 196.81851563 9.66730469 197.17578125 10.36523438 C197.8435701 11.673947 198.5032475 12.98683786 199.15380859 14.30419922 C199.79228523 15.58373146 200.47247004 16.84257158 201.171875 18.08984375 C202.32698182 20.75421749 202.68904433 23.38514848 203.125 26.25 C203.29257812 27.32765625 203.46015625 28.4053125 203.6328125 29.515625 C203.75398437 30.33546875 203.87515625 31.1553125 204 32 C204.99 32.33 205.98 32.66 207 33 C211.76367008 46.86350138 213.46477765 64.89349393 209 79 C207.5 81.8125 207.5 81.8125 206 84 C205.731875 84.763125 205.46375 85.52625 205.1875 86.3125 C201.66887565 94.27570248 196.5124895 98.80197864 188.49145508 102.00024414 C185.59253144 103.05143446 182.67973699 104.03804208 179.75 105 C178.69385498 105.34957764 177.63770996 105.69915527 176.54956055 106.05932617 C167.79958043 108.8837077 159.03845729 110.92188582 150.01025391 112.60742188 C147.15019815 113.16595596 144.32895857 113.86504606 141.5 114.5625 C127.45508269 117.85765368 112.8008592 120.08979116 98.36328125 120.23828125 C97.56957123 120.2480751 96.77586121 120.25786896 95.95809937 120.26795959 C78.99335758 120.43433337 62.4829736 120.55491636 46 116 C44.80624756 115.67854004 44.80624756 115.67854004 43.58837891 115.35058594 C21.7719412 109.28384127 5.53252999 97.93502138 -6.3125 78.3125 C-10.96380743 69.18215579 -12.19868293 60.608376 -12.1875 50.4375 C-12.18669434 49.66027588 -12.18588867 48.88305176 -12.18505859 48.08227539 C-12.10730267 40.60474698 -11.26881486 33.37498637 -10 26 C-9.855625 25.13761719 -9.71125 24.27523437 -9.5625 23.38671875 C-8.49424341 17.86421368 -6.39453788 13.06536859 -4 8 C-3.43175303 6.66910579 -2.86870109 5.3359732 -2.3125 4 C-1 1 -1 1 0 0 Z " fill="#0776FE" transform="translate(204,572)"/>
<path d="M0 0 C1.91015625 0.2265625 1.91015625 0.2265625 4 1 C4.87109375 2.8984375 4.87109375 2.8984375 5.4375 5.375 C6.4099121 9.0629246 7.53721237 12.37440077 9.1875 15.8125 C11.76623866 21.29917799 13.9627082 26.90228118 16.125 32.5625 C16.46168701 33.43688721 16.79837402 34.31127441 17.14526367 35.2121582 C19.09727627 40.35977709 20.77779873 45.52640548 22.32080078 50.80981445 C23.13257651 53.42751399 24.17417123 55.85039805 25.375 58.3125 C28.24559435 64.42436605 30.6417765 70.67567333 33 77 C33.59554687 78.56621094 33.59554687 78.56621094 34.203125 80.1640625 C34.56921875 81.14117187 34.9353125 82.11828125 35.3125 83.125 C35.63863281 83.99382812 35.96476563 84.86265625 36.30078125 85.7578125 C37 88 37 88 37 91 C13.9 91 -9.2 91 -33 91 C-32.27357131 85.91499919 -31.66373645 82.58180639 -29.8828125 77.9921875 C-29.44582031 76.85418701 -29.00882813 75.71618652 -28.55859375 74.54370117 C-28.08550781 73.33302979 -27.61242187 72.1223584 -27.125 70.875 C-26.63334278 69.60096489 -26.14247073 68.32662653 -25.65234375 67.05200195 C-24.62834098 64.39075076 -23.60093802 61.73084878 -22.57128906 59.07177734 C-20.25600472 53.08340921 -17.98599746 47.07787725 -15.71380615 41.07305908 C-14.58192994 38.08314442 -13.44688823 35.09443107 -12.3125 32.10546875 C-10.98002187 28.59375875 -9.65568537 25.0794729 -8.34765625 21.55859375 C-6.73480137 17.29972187 -4.96715383 13.11910899 -3.18359375 8.9296875 C-1.99450226 5.98639173 -0.97262841 3.02097489 0 0 Z " fill="#F7FAFE" transform="translate(634,245)"/>
<path d="M0 0 C3.22971551 0.39594871 5.05332996 1.61077918 7.4609375 3.73046875 C8.09773438 4.28669922 8.73453125 4.84292969 9.390625 5.41601562 C10.04546875 6.00060547 10.7003125 6.58519531 11.375 7.1875 C12.02210938 7.75275391 12.66921875 8.31800781 13.3359375 8.90039062 C15.24388068 10.57945755 17.12383135 12.28557003 19 14 C19.61004883 14.5357666 20.22009766 15.0715332 20.84863281 15.62353516 C22.5390625 17.17578125 22.5390625 17.17578125 25 20 C24.3166296 25.68380846 19.57509893 29.82139813 16 34 C15.43152344 34.66644531 14.86304688 35.33289063 14.27734375 36.01953125 C12.75 37.6875 12.75 37.6875 10 40 C6.12846447 39.79116198 4.08813208 37.51364984 1.375 34.9375 C-2.92205988 30.9154008 -7.38952585 27.35954139 -12.1640625 23.921875 C-14 22 -14 22 -14.5703125 19.67578125 C-13.76302439 15.8881624 -11.64941498 13.36599946 -9.25 10.4375 C-8.8065625 9.87353516 -8.363125 9.30957031 -7.90625 8.72851562 C-6.63209912 7.12645827 -5.32601168 5.55925321 -4 4 C-3.31421875 3.18660156 -2.6284375 2.37320313 -1.921875 1.53515625 C-0.97054688 0.77525391 -0.97054688 0.77525391 0 0 Z " fill="#0876FE" transform="translate(299,704)"/>
<path d="M0 0 C0.33 0 0.66 0 1 0 C1 3.96 1 7.92 1 12 C31.03 12 61.06 12 92 12 C92 12.33 92 12.66 92 13 C72.57914499 14.01903195 53.20098134 14.12592391 33.76116943 14.06866455 C29.82450926 14.05822084 25.88784206 14.05382307 21.95117188 14.04882812 C14.30076069 14.03827437 6.65039152 14.02076914 -1 14 C-0.67 9.38 -0.34 4.76 0 0 Z " fill="#B3D3FE" transform="translate(299,226)"/>
<path d="M0 0 C0.66 0.33 1.32 0.66 2 1 C-5.5922377 9.74444721 -13.76297253 17.86888881 -22 26 C-22.66 25.67 -23.32 25.34 -24 25 C-16.14595883 16.51220334 -8.2640194 8.09264573 0 0 Z " fill="#368BFF" transform="translate(129,117)"/>
<path d="M0 0 C0.66 0.33 1.32 0.66 2 1 C-5.92 8.92 -13.84 16.84 -22 25 C-22.66 24.67 -23.32 24.34 -24 24 C-16.32908807 15.59591248 -8.68092794 7.38078896 0 0 Z " fill="#D5E4FE" transform="translate(155,135)"/>
<path d="M0 0 C0.66 0.33 1.32 0.66 2 1 C1.02208496 1.78391113 0.04416992 2.56782227 -0.96337891 3.37548828 C-4.39070327 6.82447508 -4.68227854 9.49017866 -4.67977905 14.23580933 C-4.64881134 15.14541412 -4.61784363 16.05501892 -4.5859375 16.9921875 C-4.57744781 17.93812775 -4.56895813 18.88406799 -4.56021118 19.8586731 C-4.52675626 22.86529835 -4.45149222 25.86919238 -4.375 28.875 C-4.34489015 30.91923196 -4.31751614 32.96350618 -4.29296875 35.0078125 C-4.22699077 40.00625273 -4.12352396 45.00266413 -4 50 C-4.66 49.67 -5.32 49.34 -6 49 C-6.12374395 42.96776797 -6.21440813 36.93627715 -6.2746582 30.90307617 C-6.29977806 28.85151294 -6.33388036 26.80003899 -6.37719727 24.7487793 C-6.43796002 21.79713909 -6.46623492 18.8466835 -6.48828125 15.89453125 C-6.51408768 14.97976517 -6.5398941 14.06499908 -6.56648254 13.12251282 C-6.56850791 8.50756715 -6.52453003 6.64947496 -3.53198242 2.9440918 C-2.69642822 2.3025415 -1.86087402 1.66099121 -1 1 C-0.67 0.67 -0.34 0.34 0 0 Z " fill="#D8E7FE" transform="translate(470,73)"/>
<path d="M0 0 C0.92538169 3.70152678 1.08174162 4.63458162 0 8 C1.670625 8.185625 1.670625 8.185625 3.375 8.375 C7 9 7 9 9 11 C5.37 10.67 1.74 10.34 -2 10 C-1.34 6.7 -0.68 3.4 0 0 Z " fill="#4795FC" transform="translate(502,359)"/>
<path d="M0 0 C0.5775 0.2475 1.155 0.495 1.75 0.75 C-1.44668988 3.3986859 -4.64486597 5.68992341 -8.25 7.75 C-6.64613593 4.0076505 -4.56199942 -0.50688882 0 0 Z " fill="#4690FF" transform="translate(301.25,704.25)"/>
<path d="M0 0 C0.66 0.33 1.32 0.66 2 1 C1.38511719 1.59748047 1.38511719 1.59748047 0.7578125 2.20703125 C0.21898437 2.73683594 -0.31984375 3.26664062 -0.875 3.8125 C-1.40867187 4.33457031 -1.94234375 4.85664062 -2.4921875 5.39453125 C-4.20776561 7.13259904 -4.20776561 7.13259904 -6 10 C-5.58578031 5.16743695 -3.53586014 3.17320782 0 0 Z " fill="#C0D8FF" transform="translate(470,73)"/>
</svg>
